<?xml version="1.0" encoding="utf-8"?>
<!-- Generator: Adobe Illustrator 26.4.1, SVG Export Plug-In . SVG Version: 6.00 Build 0)  -->
<svg version="1.1" id="Шар_1" xmlns="http://www.w3.org/2000/svg" xmlns:xlink="http://www.w3.org/1999/xlink" x="0px" y="0px"
	 viewBox="0 0 1128.47 199.15" style="enable-background:new 0 0 1128.47 199.15;" xml:space="preserve">
<style type="text/css">
	.st0{fill:#FFFFFF;}
</style>
<g>
	<path d="M200.84,108.64v31.47h-45.01v-30.97c0-5.52-2.01-7.65-6.77-7.65c-5.02,0-7.52,2.63-7.52,7.02v31.6H97.9v-30.59
		c0-5.89-2.13-8.02-6.9-8.02c-4.76,0-7.4,2.63-7.4,7.02v31.6H38.72V73.66h20.56L73.45,94.6c4.51-15.3,15.92-23.45,33.6-23.45
		c16.43,0,26.83,6.14,31.6,19.06c5.39-12.29,15.55-18.81,30.09-18.81C188.93,71.4,200.84,83.19,200.84,108.64z"/>
	<path d="M202.34,107.89v-2.01c0-19.31,15.55-34.73,56.05-34.73c40.75,0,56.17,15.42,56.17,34.73v2.01
		c0,19.31-15.42,34.73-56.17,34.73C217.88,142.62,202.34,127.2,202.34,107.89z M268.54,106.76c0-4.89-2.88-7.77-10.03-7.77
		c-7.15,0-10.16,2.88-10.16,7.77c0,5.14,3.01,8.02,10.16,8.02C265.65,114.79,268.54,111.9,268.54,106.76z"/>
	<path d="M395.54,72.53v38.12c-4.64-0.38-11.53-0.88-18.18-0.88c-10.91,0-13.92,3.01-13.92,12.66v17.68h-46.39V73.66h20.56
		l16.93,20.69c3.13-16.93,12.16-23.2,24.83-23.2C386.52,71.15,392.66,72.03,395.54,72.53z"/>
	<path d="M491.96,102h-31.72v3.39c0,6.52,1.63,8.02,11.16,8.02c7.52,0,13.79-0.5,20.69-1.25v27.96c-6.52,1-16.93,2.51-30.97,2.51
		c-35.86,0-45.51-9.65-45.51-35.98V102h-17.8V73.66h21.32l13.79-20.69h27.33v20.69h31.72V102z"/>
	<path d="M605.3,102v38.12h-20.44l-17.3-17.55c-2.63,10.16-11.79,20.06-38.87,20.06c-26.83,0-35.23-8.53-35.23-20.06
		c0-11.28,7.9-19.06,44.63-20.19l21.19-0.63v-1.63c0-4.26-2.01-6.27-8.27-6.27s-8.28,2.01-8.9,4.39h-45.26
		c1.63-15.05,14.04-27.08,55.79-27.08C593.01,71.15,605.3,83.69,605.3,102z M559.53,113.03l-11.41,0.38
		c-6.39,0.25-8.15,2.01-8.15,4.26s1.63,4.01,7.4,4.01C555.9,121.68,559.53,117.55,559.53,113.03z"/>
	<path d="M656.7,140.11h-47.02V48.59h47.02V140.11z"/>
	<path d="M770.79,110.78h-66.83c0.88,4.89,4.01,7.15,10.41,7.15c6.27,0,7.77-1.63,9.28-3.01h46.77
		c-2.63,14.67-15.8,27.71-54.42,27.71c-41.25,0-56.92-15.55-56.92-34.61v-2.26c0-19.06,15.67-34.61,57.05-34.61
		c40.12,0,55.17,15.04,55.17,33.23C771.29,106.51,771.17,108.39,770.79,110.78z M704.22,100.62h21.44
		c-0.75-4.14-3.89-6.27-10.41-6.27C708.73,94.35,705.34,96.48,704.22,100.62z"/>
	<path d="M884.13,110.78H817.3c0.88,4.89,4.01,7.15,10.41,7.15c6.27,0,7.77-1.63,9.28-3.01h46.77
		c-2.63,14.67-15.8,27.71-54.42,27.71c-41.25,0-56.92-15.55-56.92-34.61v-2.26c0-19.06,15.67-34.61,57.05-34.61
		c40.12,0,55.17,15.04,55.17,33.23C884.63,106.51,884.51,108.39,884.13,110.78z M817.55,100.62h21.44
		c-0.75-4.14-3.89-6.27-10.41-6.27C822.07,94.35,818.68,96.48,817.55,100.62z"/>
	<path d="M932.02,116.67c0.5,2.51,2.13,4.26,9.65,4.26s8.9-1.51,8.9-3.26c0-1.88-1.13-3.26-13.29-3.64
		c-43.88-0.88-51.28-8.78-51.28-20.44c0-11.41,10.66-22.44,53.66-22.44c42.38,0,54.17,11.91,55.42,25.7h-46.27
		c-0.38-2.38-2.01-4.01-8.78-4.01c-7.15,0-8.53,1.25-8.53,3.14c0,1.88,1.13,3.26,13.29,3.51c43.76,0.75,51.91,8.9,51.91,20.44
		c0,11.66-10.91,22.69-54.92,22.69c-44.13,0-55.54-11.53-56.8-25.95H932.02z"/>
	<path d="M1089.62,102h-31.72v3.39c0,6.52,1.63,8.02,11.16,8.02c7.52,0,13.79-0.5,20.69-1.25v27.96c-6.52,1-16.93,2.51-30.97,2.51
		c-35.86,0-45.51-9.65-45.51-35.98V102h-17.8V73.66h21.32l13.79-20.69h27.33v20.69h31.72V102z"/>
</g>
</svg>
