<svg width="14" height="20" viewBox="0 0 14 20" fill="none" xmlns="http://www.w3.org/2000/svg">
<path d="M12.248 5.64707C12.248 8.76586 9.89837 11.2941 6.99992 11.2941C4.10147 11.2941 1.75181 8.76586 1.75181 5.64707C1.75181 2.52828 4.10147 0 6.99992 0C9.89837 0 12.248 2.52828 12.248 5.64707ZM3.43121 5.64707C3.43121 7.76785 5.02898 9.48708 6.99992 9.48708C8.97087 9.48708 10.5686 7.76785 10.5686 5.64707C10.5686 3.52629 8.97087 1.80706 6.99992 1.80706C5.02898 1.80706 3.43121 3.52629 3.43121 5.64707Z" fill="#343936"/>
<path d="M8.40813 10.8227C9.15283 10.6082 9.83224 10.2195 10.4071 9.69906L13.7739 11.983C13.9671 12.114 14.0481 12.3588 13.9713 12.5794L11.5093 19.6542C11.4372 19.8612 11.2422 20 11.0233 20H2.97675C2.75776 20 2.56275 19.8612 2.49069 19.6542L0.0287138 12.5794C-0.0480606 12.3588 0.0329386 12.114 0.226094 11.983L3.66957 9.64705C4.23273 10.1717 4.89997 10.5682 5.63301 10.7951L2.67547 12.7701C2.28336 13.0319 2.11888 13.5269 2.27616 13.9718L3.67237 17.9213C3.81791 18.333 4.2067 18.6082 4.64281 18.6082H9.35709C9.7932 18.6082 10.182 18.333 10.3275 17.9213L11.7237 13.9718C11.881 13.5269 11.7165 13.0319 11.3244 12.7701L8.40813 10.8227Z" fill="#343936"/>
</svg>
