<svg width="16" height="24" viewBox="0 0 16 24" fill="none" xmlns="http://www.w3.org/2000/svg">
<path d="M2.70173 6.63123C2.70173 8.25922 3.34078 9.72876 4.36549 10.7652L1.19807 12.908C0.986155 13.0513 0.897252 13.3191 0.981504 13.5606L3.44336 20.6155C3.52244 20.8421 3.7364 20.9939 3.97661 20.9939H12.0227C12.2629 20.9939 12.4769 20.8421 12.556 20.6155L15.0178 13.5606C15.1021 13.3191 15.0132 13.0513 14.8013 12.908L11.6338 10.7652C12.6584 9.72869 13.2975 8.25919 13.2975 6.63123C13.2975 3.49695 10.9288 0.95 7.99959 0.95C5.0704 0.95 2.70173 3.49695 2.70173 6.63123ZM10.3937 11.7008L12.8921 13.3646C13.3191 13.6489 13.4982 14.1866 13.327 14.6697L11.7386 19.1505C11.5801 19.5976 11.1566 19.8965 10.6816 19.8965H5.31836C4.84335 19.8965 4.41994 19.5976 4.26145 19.1505L2.67303 14.6697C2.50176 14.1866 2.68086 13.6489 3.1079 13.3646L5.60594 11.7011C6.32462 12.092 7.13785 12.3125 7.99959 12.3125C8.86152 12.3125 9.67491 12.0919 10.3937 11.7008ZM1 22.95H0.95V23V23.8224V23.8724H1H8H15H15.05V23.8224V23V22.95H15H1ZM7.99959 11.1269C5.69086 11.1269 3.81336 9.11752 3.81336 6.63123C3.81336 4.14495 5.69086 2.13553 7.99959 2.13553C10.3083 2.13553 12.1858 4.14495 12.1858 6.63123C12.1858 9.11752 10.3083 11.1269 7.99959 11.1269Z" fill="#343936" stroke="#343936" stroke-width="0.1"/>
</svg>
