<svg width="14" height="20" viewBox="0 0 14 20" fill="none" xmlns="http://www.w3.org/2000/svg">
<path d="M10.7486 7.02788C10.7486 9.25241 9.07026 11.0558 6.99994 11.0558C4.92962 11.0558 3.2513 9.25241 3.2513 7.02788C3.2513 4.80334 4.92962 3 6.99994 3C9.07026 3 10.7486 4.80334 10.7486 7.02788ZM4.45086 7.02788C4.45086 8.54056 5.59213 9.76683 6.99994 9.76683C8.40776 9.76683 9.54902 8.54056 9.54902 7.02788C9.54902 5.51519 8.40776 4.28892 6.99994 4.28892C5.59213 4.28892 4.45086 5.51519 4.45086 7.02788Z" fill="#343936"/>
<path d="M8.00581 10.7195C8.53774 10.5665 9.02303 10.2892 9.43365 9.91804L11.8385 11.5471C11.9765 11.6406 12.0343 11.8151 11.9795 11.9725L10.2209 17.0187C10.1695 17.1664 10.0302 17.2654 9.87375 17.2654H4.12625C3.96983 17.2654 3.83054 17.1664 3.77906 17.0187L2.02051 11.9725C1.96567 11.8151 2.02353 11.6406 2.1615 11.5471L4.62112 9.88093C5.02338 10.2551 5.49998 10.538 6.02358 10.6998L3.91105 12.1085C3.63097 12.2952 3.51348 12.6483 3.62583 12.9657L4.62312 15.7827C4.72708 16.0764 5.00478 16.2726 5.31629 16.2726H8.68364C8.99515 16.2726 9.27285 16.0764 9.37681 15.7827L10.3741 12.9657C10.4864 12.6483 10.369 12.2952 10.0889 12.1085L8.00581 10.7195Z" fill="#343936"/>
</svg>
