<svg width="14" height="20" viewBox="0 0 14 20" fill="none" xmlns="http://www.w3.org/2000/svg">
<path fill-rule="evenodd" clip-rule="evenodd" d="M14 2.97521H0V19.1736C0 19.63 0.352135 20 0.786517 20H13.2135C13.6479 20 14 19.63 14 19.1736V2.97521ZM1.96629 4.46281C1.7491 4.46281 1.57303 4.64782 1.57303 4.87603V18.0992C1.57303 18.3274 1.7491 18.5124 1.96629 18.5124H11.8764C12.0936 18.5124 12.2697 18.3274 12.2697 18.0992V4.87603C12.2697 4.64782 12.0936 4.46281 11.8764 4.46281H1.96629Z" fill="#343936"/>
<path d="M10.0674 5.78512C10.0674 6.24156 9.71528 6.61157 9.2809 6.61157C8.84652 6.61157 8.49438 6.24156 8.49438 5.78512C8.49438 5.32869 8.84652 4.95868 9.2809 4.95868C9.71528 4.95868 10.0674 5.32869 10.0674 5.78512Z" fill="#343936"/>
<path d="M5.50562 5.78512C5.50562 6.24156 5.15348 6.61157 4.7191 6.61157C4.28472 6.61157 3.93258 6.24156 3.93258 5.78512C3.93258 5.32869 4.28472 4.95868 4.7191 4.95868C5.15348 4.95868 5.50562 5.32869 5.50562 5.78512Z" fill="#343936"/>
<path d="M4.61001 6.31911C4.24803 5.74934 4.02041 5.06175 3.95334 4.33543C3.88627 3.60911 3.98248 2.87357 4.23089 2.21342C4.4793 1.55326 4.86982 0.995316 5.35754 0.603757C5.84526 0.212197 6.41036 0.00293091 6.98783 3.05626e-05C7.56531 -0.00286978 8.1317 0.200714 8.62186 0.587362C9.11201 0.97401 9.50602 1.52802 9.75856 2.18565C10.0111 2.84329 10.1119 3.57784 10.0494 4.30481C9.98687 5.03178 9.76357 5.72164 9.40516 6.29502L8.82792 5.71645C9.10031 5.28067 9.27002 4.75638 9.31754 4.20389C9.36505 3.65139 9.28843 3.09313 9.09651 2.59333C8.90458 2.09352 8.60513 1.67248 8.23261 1.37863C7.86009 1.08477 7.42963 0.93005 6.99075 0.932255C6.55187 0.934459 6.1224 1.0935 5.75173 1.39109C5.38107 1.68867 5.08427 2.11271 4.89547 2.61443C4.70668 3.11614 4.63357 3.67515 4.68454 4.22716C4.73551 4.77916 4.9085 5.30173 5.18361 5.73475L4.61001 6.31911Z" fill="#343936"/>
</svg>
