<svg width="14" height="20" viewBox="0 0 14 20" fill="none" xmlns="http://www.w3.org/2000/svg">
<path fill-rule="evenodd" clip-rule="evenodd" d="M13 4.38016H1V17.3388C1 17.704 1.30274 18 1.67618 18H12.3238C12.6973 18 13 17.704 13 17.3388V4.38016ZM2.68641 5.57025C2.49968 5.57025 2.34831 5.71825 2.34831 5.90083V16.4793C2.34831 16.6619 2.49968 16.8099 2.68641 16.8099H11.1788C11.3655 16.8099 11.5169 16.6619 11.5169 16.4793V5.90083C11.5169 5.71825 11.3655 5.57025 11.1788 5.57025H2.68641Z" fill="#343936"/>
<path d="M9.62921 6.62811C9.62921 6.99325 9.32738 7.28926 8.95505 7.28926C8.58273 7.28926 8.2809 6.99325 8.2809 6.62811C8.2809 6.26296 8.58273 5.96695 8.95505 5.96695C9.32738 5.96695 9.62921 6.26296 9.62921 6.62811Z" fill="#343936"/>
<path d="M5.7191 6.62811C5.7191 6.99325 5.41727 7.28926 5.04494 7.28926C4.67262 7.28926 4.37078 6.99325 4.37078 6.62811C4.37078 6.26296 4.67262 5.96695 5.04494 5.96695C5.41727 5.96695 5.7191 6.26296 5.7191 6.62811Z" fill="#343936"/>
<path d="M4.95144 7.05529C4.64117 6.59947 4.44607 6.0494 4.38858 5.46834C4.33109 4.88729 4.41355 4.29885 4.62647 3.77073C4.8394 3.24261 5.17413 2.79625 5.59218 2.48301C6.01022 2.16976 6.49459 2.00234 6.98957 2.00002C7.48455 1.9977 7.97003 2.16057 8.39016 2.46989C8.81029 2.77921 9.14802 3.22241 9.36448 3.74852C9.58094 4.27463 9.66735 4.86227 9.61376 5.44385C9.56017 6.02542 9.36877 6.57731 9.06157 7.03602L8.56679 6.57316C8.80026 6.22454 8.94573 5.80511 8.98645 5.36311C9.02718 4.92111 8.96151 4.47451 8.797 4.07466C8.63249 3.67482 8.37582 3.33798 8.05652 3.1029C7.73722 2.86782 7.36826 2.74404 6.99207 2.7458C6.61589 2.74757 6.24777 2.8748 5.93005 3.11287C5.61234 3.35094 5.35794 3.69017 5.19612 4.09154C5.0343 4.49291 4.97163 4.94012 5.01532 5.38173C5.05901 5.82333 5.20729 6.24138 5.44309 6.5878L4.95144 7.05529Z" fill="#343936"/>
</svg>
