<svg width="14" height="23" viewBox="0 0 14 23" fill="none" xmlns="http://www.w3.org/2000/svg">
<path fill-rule="evenodd" clip-rule="evenodd" d="M14 2.97521H0V19.1736C0 19.63 0.352135 20 0.786517 20H13.2135C13.6479 20 14 19.63 14 19.1736V2.97521ZM1.49438 3.96694C1.27719 3.96694 1.10112 4.15195 1.10112 4.38017V18.595C1.10112 18.8233 1.27719 19.0083 1.49438 19.0083H12.5056C12.7228 19.0083 12.8989 18.8233 12.8989 18.595V4.38017C12.8989 4.15195 12.7228 3.96694 12.5056 3.96694H1.49438Z" fill="#343936"/>
<path d="M9.91011 5.95041C9.91011 6.31556 9.6284 6.61157 9.2809 6.61157C8.93339 6.61157 8.65169 6.31556 8.65169 5.95041C8.65169 5.58527 8.93339 5.28926 9.2809 5.28926C9.6284 5.28926 9.91011 5.58527 9.91011 5.95041Z" fill="#343936"/>
<path d="M5.34831 5.95041C5.34831 6.31556 5.06661 6.61157 4.7191 6.61157C4.3716 6.61157 4.08989 6.31556 4.08989 5.95041C4.08989 5.58527 4.3716 5.28926 4.7191 5.28926C5.06661 5.28926 5.34831 5.58527 5.34831 5.95041Z" fill="#343936"/>
<path d="M4.61001 6.31911C4.24803 5.74934 4.02041 5.06175 3.95334 4.33543C3.88627 3.60911 3.98248 2.87357 4.23089 2.21342C4.4793 1.55326 4.86982 0.995316 5.35754 0.603757C5.84526 0.212197 6.41036 0.00293091 6.98783 3.05626e-05C7.56531 -0.00286978 8.1317 0.200714 8.62186 0.587362C9.11201 0.97401 9.50602 1.52802 9.75856 2.18565C10.0111 2.84329 10.1119 3.57784 10.0494 4.30481C9.98687 5.03178 9.76357 5.72164 9.40516 6.29502L8.94748 5.83628C9.23768 5.372 9.41849 4.81342 9.46911 4.22479C9.51973 3.63616 9.4381 3.04139 9.23362 2.50889C9.02914 1.9764 8.71011 1.52782 8.31323 1.21475C7.91635 0.901676 7.45773 0.736833 6.99015 0.739182C6.52256 0.74153 6.065 0.910974 5.67009 1.22802C5.27518 1.54507 4.95897 1.99684 4.75783 2.53137C4.55669 3.0659 4.4788 3.66148 4.5331 4.24958C4.58741 4.83769 4.77171 5.39443 5.06481 5.85578L4.61001 6.31911Z" fill="#343936"/>
<path d="M0 22H14V22.8H0V22Z" fill="#343936"/>
</svg>
