<svg width="8" height="13" viewBox="0 0 8 13" fill="none" xmlns="http://www.w3.org/2000/svg">
<path fill-rule="evenodd" clip-rule="evenodd" d="M8 3H0V12.5192C0 12.7848 0.20122 13 0.449438 13H7.55056C7.79878 13 8 12.7848 8 12.5192V3ZM1.03371 3.67961C0.909599 3.67961 0.808989 3.78723 0.808989 3.92V11.9829C0.808989 12.1157 0.909599 12.2233 1.03371 12.2233H6.8764C7.00051 12.2233 7.10112 12.1157 7.10112 11.9829V3.92C7.10112 3.78723 7.00051 3.67961 6.8764 3.67961H1.03371Z" fill="#343936"/>
<path d="M5.57303 5.40385H6.20225V10.5H5.57303V5.40385Z" fill="#343936"/>
<path d="M1.79775 5.40385H2.42697V10.5H1.79775V5.40385Z" fill="#343936"/>
<path d="M3.68539 5.01923H4.31461V10.9808H3.68539V5.01923Z" fill="#343936"/>
<path d="M3.60976 4.77083H4.39024V11.0208H3.60976V4.77083Z" fill="#343936"/>
<path d="M5.46341 5.29167H6.2439V10.5H5.46341V5.29167Z" fill="#343936"/>
<path d="M1.7561 5.29167H2.53659V10.5H1.7561V5.29167Z" fill="#343936"/>
<rect y="1.5" width="8" height="0.6" fill="#343936"/>
<path d="M5.60015 1.5C5.60015 1.30302 5.55876 1.10796 5.47835 0.925975C5.39795 0.743986 5.28009 0.578628 5.13152 0.43934C4.98294 0.300052 4.80656 0.189563 4.61244 0.114181C4.41832 0.0387986 4.21026 -8.61039e-09 4.00015 0C3.79003 8.61039e-09 3.58197 0.0387987 3.38785 0.114181C3.19373 0.189563 3.01735 0.300052 2.86878 0.43934C2.7202 0.578628 2.60235 0.743987 2.52194 0.925975C2.44153 1.10796 2.40015 1.30302 2.40015 1.5L2.92079 1.5C2.92079 1.36712 2.94871 1.23553 3.00295 1.11277C3.0572 0.989997 3.1367 0.878446 3.23693 0.784483C3.33716 0.69052 3.45614 0.615985 3.5871 0.565133C3.71805 0.51428 3.8584 0.488107 4.00015 0.488107C4.14189 0.488107 4.28224 0.51428 4.4132 0.565133C4.54415 0.615985 4.66314 0.69052 4.76336 0.784483C4.86359 0.878446 4.9431 0.989997 4.99734 1.11277C5.05158 1.23553 5.0795 1.36712 5.0795 1.5H5.60015Z" fill="#343936"/>
</svg>
