<svg width="9" height="13" viewBox="0 0 9 13" fill="none" xmlns="http://www.w3.org/2000/svg">
<path fill-rule="evenodd" clip-rule="evenodd" d="M8.59551 2.68595H0.303371V12.5041C0.303371 12.778 0.511939 13 0.769221 13H8.12966C8.38694 13 8.59551 12.778 8.59551 12.5041V2.68595ZM1.37483 3.3869C1.24619 3.3869 1.1419 3.49791 1.1419 3.63484V11.951C1.1419 12.0879 1.24619 12.1989 1.37483 12.1989H7.43088C7.55952 12.1989 7.66381 12.0879 7.66381 11.951V3.63484C7.66381 3.49791 7.55952 3.3869 7.43088 3.3869H1.37483Z" fill="#343936"/>
<path d="M6.07991 5.16529H6.73211V10.4215H6.07991V5.16529Z" fill="#343936"/>
<path d="M2.16677 5.16529H2.81896V10.4215H2.16677V5.16529Z" fill="#343936"/>
<path d="M4.12334 4.7686H4.77553V10.9174H4.12334V4.7686Z" fill="#343936"/>
<path d="M0 2.36364H9V3.33058H0V2.36364Z" fill="#343936"/>
<path d="M6.67416 2.36364C6.67416 2.05324 6.61792 1.74588 6.50866 1.45911C6.3994 1.17234 6.23925 0.911777 6.03736 0.692293C5.83547 0.472809 5.59579 0.298705 5.33201 0.179921C5.06823 0.0611372 4.78551 -1.35679e-08 4.5 0C4.21449 1.35679e-08 3.93177 0.0611373 3.66799 0.179921C3.40421 0.298705 3.16453 0.472809 2.96264 0.692293C2.76075 0.911777 2.6006 1.17234 2.49134 1.45911C2.38208 1.74588 2.32584 2.05324 2.32584 2.36364H3.15202C3.15202 2.17119 3.18689 1.98063 3.25463 1.80283C3.32237 1.62503 3.42166 1.46348 3.54684 1.3274C3.67201 1.19132 3.82061 1.08338 3.98415 1.00973C4.1477 0.936087 4.32298 0.898182 4.5 0.898182C4.67702 0.898182 4.8523 0.936087 5.01585 1.00973C5.17939 1.08338 5.32799 1.19132 5.45316 1.3274C5.57833 1.46348 5.67763 1.62503 5.74537 1.80283C5.81311 1.98063 5.84798 2.17119 5.84798 2.36364H6.67416Z" fill="#343936"/>
<path d="M4.04494 4.5124H4.85393V10.9587H4.04494V4.5124Z" fill="#343936"/>
<path d="M5.96629 5.04959H6.77528V10.4215H5.96629V5.04959Z" fill="#343936"/>
<path d="M2.1236 5.04959H2.93258V10.4215H2.1236V5.04959Z" fill="#343936"/>
</svg>
